%TF.GenerationSoftware,KiCad,Pcbnew,(6.0.5-0)*%
%TF.CreationDate,2022-07-19T01:27:06-07:00*%
%TF.ProjectId,clock_design,636c6f63-6b5f-4646-9573-69676e2e6b69,rev?*%
%TF.SameCoordinates,PX56c8cc0PY97a25c0*%
%TF.FileFunction,Paste,Bot*%
%TF.FilePolarity,Positive*%
%FSLAX46Y46*%
G04 Gerber Fmt 4.6, Leading zero omitted, Abs format (unit mm)*
G04 Created by KiCad (PCBNEW (6.0.5-0)) date 2022-07-19 01:27:06*
%MOMM*%
%LPD*%
G01*
G04 APERTURE LIST*
%ADD10R,1.150000X1.400000*%
%ADD11R,1.400000X1.150000*%
%ADD12R,1.000000X1.800000*%
%ADD13R,1.400000X1.600000*%
%ADD14R,2.750000X3.050000*%
%ADD15R,1.200000X2.200000*%
G04 APERTURE END LIST*
D10*
%TO.C,R4*%
X35282042Y72292455D03*
X33582042Y72292455D03*
%TD*%
%TO.C,R2*%
X35362450Y74543881D03*
X33662450Y74543881D03*
%TD*%
D11*
%TO.C,R14*%
X102040000Y90000000D03*
X102040000Y88300000D03*
%TD*%
%TO.C,C1*%
X96960000Y44280000D03*
X96960000Y42580000D03*
%TD*%
D10*
%TO.C,R22*%
X99080000Y73910000D03*
X97380000Y73910000D03*
%TD*%
%TO.C,R23*%
X99080000Y71370000D03*
X97380000Y71370000D03*
%TD*%
D12*
%TO.C,Y2*%
X81700000Y44700000D03*
X79200000Y44700000D03*
%TD*%
D10*
%TO.C,R7*%
X59280000Y16760000D03*
X60980000Y16760000D03*
%TD*%
D13*
%TO.C,SW1*%
X78200000Y25840000D03*
X78200000Y17840000D03*
X82700000Y25840000D03*
X82700000Y17840000D03*
%TD*%
D11*
%TO.C,C5*%
X72830000Y46820000D03*
X72830000Y45120000D03*
%TD*%
D10*
%TO.C,C9*%
X80020000Y32000000D03*
X81720000Y32000000D03*
%TD*%
%TO.C,R16*%
X64790000Y77720000D03*
X63090000Y77720000D03*
%TD*%
D11*
%TO.C,C4*%
X70290000Y46820000D03*
X70290000Y45120000D03*
%TD*%
%TO.C,C11*%
X52510000Y60871742D03*
X52510000Y62571742D03*
%TD*%
D10*
%TO.C,C17*%
X28380000Y35810000D03*
X26680000Y35810000D03*
%TD*%
D11*
%TO.C,C16*%
X56320000Y78570000D03*
X56320000Y76870000D03*
%TD*%
D10*
%TO.C,R8*%
X60980000Y14220000D03*
X59280000Y14220000D03*
%TD*%
D11*
%TO.C,C24*%
X47430000Y61210000D03*
X47430000Y62910000D03*
%TD*%
%TO.C,C23*%
X58860000Y78570000D03*
X58860000Y76870000D03*
%TD*%
D10*
%TO.C,C22*%
X26923836Y38294517D03*
X25223836Y38294517D03*
%TD*%
D11*
%TO.C,C10*%
X49970000Y61210000D03*
X49970000Y62910000D03*
%TD*%
%TO.C,C8*%
X75370000Y46820000D03*
X75370000Y45120000D03*
%TD*%
D14*
%TO.C,U2*%
X56065000Y67525000D03*
X59115000Y64175000D03*
X56065000Y64175000D03*
X59115000Y67525000D03*
D15*
X59870000Y59550000D03*
X55310000Y59550000D03*
%TD*%
D11*
%TO.C,R3*%
X44890000Y61630000D03*
X44890000Y63330000D03*
%TD*%
D10*
%TO.C,C13*%
X44890000Y5330000D03*
X43190000Y5330000D03*
%TD*%
M02*
