M48
; DRILL file {KiCad (6.0.5-0)} date Tuesday, July 19, 2022 at 01:27:45 AM
; FORMAT={-:-/ absolute / inch / decimal}
; #@! TF.CreationDate,2022-07-19T01:27:45-07:00
; #@! TF.GenerationSoftware,Kicad,Pcbnew,(6.0.5-0)
; #@! TF.FileFunction,MixedPlating,1,2
FMAT,2
INCH
; #@! TA.AperFunction,Plated,PTH,ViaDrill
T1C0.0157
; #@! TA.AperFunction,Plated,PTH,ComponentDrill
T2C0.0300
; #@! TA.AperFunction,Plated,PTH,ComponentDrill
T3C0.0315
; #@! TA.AperFunction,Plated,PTH,ComponentDrill
T4C0.0394
; #@! TA.AperFunction,Plated,PTH,ComponentDrill
T5C0.0591
; #@! TA.AperFunction,NonPlated,NPTH,ComponentDrill
T6C0.1260
%
G90
G05
T1
X0.4673Y1.7098
X0.6173Y3.3098
X0.7726Y2.0797
X0.7839Y0.9433
X0.8099Y2.0453
X0.8173Y1.1598
X0.8472Y2.1486
X0.853Y2.0022
X0.8817Y2.1127
X0.8989Y1.9534
X0.9173Y2.6098
X0.9173Y2.5598
X0.9173Y2.5098
X0.9173Y2.4598
X0.9173Y0.8098
X0.9218Y2.074
X0.9405Y1.5067
X0.9591Y2.0338
X0.9673Y1.0098
X0.976Y1.4114
X1.0Y2.2112
X1.0173Y3.4598
X1.0173Y2.6098
X1.0173Y2.5598
X1.0173Y2.5098
X1.0173Y2.4598
X1.1173Y1.9598
X1.1173Y0.6098
X1.1642Y0.565
X1.1673Y0.4598
X1.172Y2.9
X1.1977Y0.7109
X1.2173Y3.0598
X1.2429Y0.6686
X1.2502Y0.5592
X1.2596Y1.3673
X1.2673Y2.9098
X1.2673Y0.4598
X1.289Y1.6721
X1.2907Y1.8153
X1.2937Y2.0714
X1.2985Y1.3673
X1.3173Y3.0098
X1.3251Y1.4177
X1.3336Y1.8145
X1.3371Y1.6738
X1.3673Y3.3098
X1.3673Y1.0098
X1.3808Y2.4695
X1.3819Y2.5427
X1.4173Y3.5598
X1.4173Y1.0098
X1.439Y2.5417
X1.4433Y2.4695
X1.4472Y1.5397
X1.4534Y1.3602
X1.4549Y1.1598
X1.4673Y3.4098
X1.5173Y3.4598
X1.6173Y1.7098
X1.6173Y1.4098
X1.6173Y1.1598
X1.6654Y2.8728
X1.6673Y3.9598
X1.6673Y3.0098
X1.6673Y2.4598
X1.6673Y1.2598
X1.6673Y0.9598
X1.7173Y3.0098
X1.7173Y0.5098
X1.718Y2.8739
X1.7673Y3.0098
X1.7695Y2.8716
X1.8673Y2.6098
X1.8673Y2.5598
X1.8673Y1.6598
X1.9173Y2.6098
X1.9173Y2.5598
X1.9173Y1.8098
X1.9173Y0.1598
X1.9673Y2.6598
X1.9673Y2.6098
X1.9673Y2.5598
X1.9673Y1.8098
X2.0173Y2.7098
X2.0173Y2.6598
X2.0173Y2.6098
X2.0173Y2.5598
X2.0173Y1.8098
X2.0409Y1.515
X2.0673Y2.7098
X2.0673Y2.6598
X2.0673Y2.6098
X2.0673Y2.5598
X2.0673Y1.8098
X2.0849Y1.4767
X2.1173Y1.8098
X2.1173Y1.6598
X2.1173Y1.4098
X2.1173Y0.2098
X2.1563Y3.0261
X2.1673Y1.6598
X2.175Y1.5218
X2.2173Y1.6598
X2.218Y1.4803
X2.2313Y2.7691
X2.2322Y2.8519
X2.2673Y1.6598
X2.3066Y2.8519
X2.3094Y2.7719
X2.3173Y1.6598
X2.361Y1.635
X2.3673Y1.3098
X2.3673Y0.4098
X2.3761Y3.0261
X2.3838Y2.7729
X2.3857Y2.8519
X2.3958Y1.5969
X2.4173Y3.3098
X2.4673Y2.5598
X2.4673Y1.1598
X2.4673Y0.6598
X2.4673Y0.5098
X2.4673Y0.4098
X2.5173Y1.7098
X2.5673Y2.5598
X2.5673Y1.6098
X2.5673Y0.5098
X2.5673Y0.4098
X2.6173Y3.6098
X2.6173Y2.3598
X2.6173Y1.7098
X2.6673Y2.6098
X2.6673Y1.6098
X2.6673Y0.5098
X2.6673Y0.4098
X2.7173Y2.3598
X2.7173Y1.7098
X2.7484Y2.9584
X2.7484Y2.8417
X2.7666Y1.7297
X2.7673Y2.6098
X2.7673Y2.5598
X2.7673Y2.3098
X2.7673Y1.6098
X2.8173Y2.9598
X2.822Y2.8402
X2.8667Y1.731
X2.8673Y1.6098
X2.9162Y3.9492
X2.9216Y1.142
X2.962Y1.1839
X2.9673Y1.7285
X2.9673Y0.5598
X2.9923Y1.0742
X3.0067Y1.2156
X3.0173Y2.3598
X3.0173Y1.1098
X3.0173Y0.6098
X3.0245Y1.0167
X3.0271Y0.3062
X3.0285Y0.2176
X3.05Y1.256
X3.0558Y1.142
X3.0673Y2.49
X3.0673Y3.4098
X3.1115Y2.4517
X3.1415Y0.7009
X3.1673Y3.4098
X3.1673Y2.4098
X3.1964Y2.4947
X3.2173Y3.3598
X3.2173Y2.1098
X3.2245Y4.0519
X3.225Y3.9704
X3.2673Y2.0598
X3.2673Y1.2598
X3.2917Y4.0502
X3.2956Y3.9714
X3.3173Y2.0098
X3.3173Y0.8598
X3.3269Y1.5819
X3.3673Y2.8598
X3.3673Y2.2098
X3.3673Y1.0598
X3.3673Y0.7098
X3.4026Y1.5834
X3.4173Y2.1598
X3.4173Y1.2098
X3.4173Y0.5598
X3.4673Y2.4598
X3.4673Y2.1098
X3.5165Y1.0461
X3.5173Y2.8098
X3.5173Y1.6098
X3.5173Y1.3598
X3.5673Y3.5098
X3.5673Y2.7598
X3.5673Y2.5098
X3.5673Y2.1098
X3.6173Y0.6098
X3.6673Y1.0098
X3.7173Y2.7598
X3.8222Y1.9017
X3.8246Y1.841
X3.8673Y0.9098
X3.9076Y1.8993
X3.9084Y1.8369
X3.9559Y2.4547
X3.9673Y3.0598
X4.0673Y3.4098
X4.0785Y2.4553
X4.0841Y1.5151
X4.0938Y1.4311
X4.1673Y2.9098
T2
X1.8449Y1.4598
X1.8449Y1.3598
X1.8449Y1.2598
X1.8449Y1.1598
X1.8449Y1.0598
X1.8449Y0.9598
X1.8449Y0.8598
X1.8449Y0.7598
X2.7898Y1.4598
X2.7898Y1.3598
X2.7898Y1.2598
X2.7898Y1.1598
X2.7898Y1.0598
X2.7898Y0.9598
X2.7898Y0.8598
X2.7898Y0.7598
T3
X0.5673Y1.4937
X0.5673Y1.3598
X1.2169Y1.91
X1.2169Y1.81
X1.2169Y1.71
X1.2169Y1.61
X1.2169Y1.51
X1.2169Y1.41
X1.2169Y1.31
X1.2169Y1.21
X1.2169Y1.11
X1.2169Y1.01
X1.2169Y0.91
X1.2169Y0.81
X1.5169Y1.91
X1.5169Y1.81
X1.5169Y1.71
X1.5169Y1.61
X1.5169Y1.51
X1.5169Y1.41
X1.5169Y1.31
X1.5169Y1.21
X1.5169Y1.11
X1.5169Y1.01
X1.5169Y0.91
X1.5169Y0.81
X1.7671Y3.5094
X1.7671Y3.2094
X1.8671Y3.5094
X1.8671Y3.2094
X1.9671Y3.5094
X1.9671Y3.2094
X2.0671Y3.5094
X2.0671Y3.2094
X2.1671Y3.5094
X2.1671Y3.2094
X2.2671Y3.5094
X2.2671Y3.2094
X2.3671Y3.5094
X2.3671Y3.2094
X2.4671Y3.5094
X2.4671Y3.2094
X2.5671Y3.5094
X2.5671Y3.2094
X2.6671Y3.5094
X2.6671Y3.2094
X2.7671Y3.5094
X2.7671Y3.2094
X2.8671Y3.5094
X2.8671Y3.2094
X3.1173Y1.6598
X3.1173Y1.3598
X3.2173Y1.6598
X3.2173Y1.3598
X3.3173Y1.6598
X3.3173Y1.3598
X3.4173Y1.6598
X3.4173Y1.3598
X3.7169Y2.3602
X3.7169Y2.2602
X3.7169Y2.1602
X3.7169Y2.0602
X3.7169Y1.9602
X3.7169Y1.8602
X3.7169Y1.7602
X3.7169Y1.6602
X3.7169Y1.5602
X3.7169Y1.4602
X3.7169Y1.3602
X3.7169Y1.2602
X3.7169Y1.1602
X3.7169Y1.0602
X4.0169Y2.3602
X4.0169Y2.2602
X4.0169Y2.1602
X4.0169Y2.0602
X4.0169Y1.9602
X4.0169Y1.8602
X4.0169Y1.7602
X4.0169Y1.6602
X4.0169Y1.5602
X4.0169Y1.4602
X4.0169Y1.3602
X4.0169Y1.2602
X4.0169Y1.1602
X4.0169Y1.0602
T4
X0.3173Y2.0098
X0.8223Y3.8648
X0.8223Y3.2648
X0.9223Y3.8648
X0.9223Y3.2648
X1.0223Y3.8648
X1.0223Y3.2648
X1.1223Y3.8648
X1.1223Y3.2648
X1.2223Y3.8648
X1.2223Y3.2648
X1.4673Y0.3598
X1.4723Y4.3648
X1.4723Y3.7648
X1.5673Y0.3598
X1.5723Y4.3648
X1.5723Y3.7648
X1.6673Y0.3598
X1.6723Y4.3648
X1.6723Y3.7648
X1.7173Y2.2093
X1.7173Y2.1093
X1.7173Y2.0093
X1.718Y1.7964
X1.7673Y0.3598
X1.7723Y4.3648
X1.7723Y3.7648
X1.8673Y0.3598
X1.8723Y4.3648
X1.8723Y3.7648
X1.9673Y0.3598
X2.6029Y1.9251
X2.7173Y0.3098
X2.7173Y0.2098
X2.7223Y4.3648
X2.7223Y3.7648
X2.8173Y0.3098
X2.8173Y0.2098
X2.8223Y4.3648
X2.8223Y3.7648
X2.9173Y0.3098
X2.9173Y0.2098
X2.9223Y4.3648
X2.9223Y3.7648
X2.9673Y2.8104
X2.9673Y2.7104
X2.9673Y2.6104
X3.0223Y4.3648
X3.0223Y3.7648
X3.1223Y4.3648
X3.1223Y3.7648
X3.3723Y3.9148
X3.3723Y3.3148
X3.4723Y3.9148
X3.4723Y3.3148
X3.5723Y3.9148
X3.5723Y3.3148
X3.6723Y3.9148
X3.6723Y3.3148
X3.7723Y3.9148
X3.7723Y3.3148
X3.8205Y1.2341
X3.8673Y2.1598
X3.9673Y2.5598
T5
X0.5679Y2.3598
X1.3746Y2.3598
T6
X0.1772Y2.3228
X1.5681Y2.7098
X2.0169Y2.1098
X2.3228Y4.4685
X2.3228Y0.1772
X2.6311Y2.7098
X3.0799Y2.1098
X4.4685Y2.3228
T4
G00X2.2587Y1.8732
M15
G01X2.2587Y1.952
M16
G05
G00X2.3571Y2.0189
M15
G01X2.3571Y2.0976
M16
G05
G00X2.4181Y1.822
M15
G01X2.5165Y1.822
M16
G05
T0
M30
