%TF.GenerationSoftware,KiCad,Pcbnew,(6.0.5-0)*%
%TF.CreationDate,2022-07-19T01:27:06-07:00*%
%TF.ProjectId,clock_design,636c6f63-6b5f-4646-9573-69676e2e6b69,rev?*%
%TF.SameCoordinates,PX56c8cc0PY97a25c0*%
%TF.FileFunction,Soldermask,Bot*%
%TF.FilePolarity,Negative*%
%FSLAX46Y46*%
G04 Gerber Fmt 4.6, Leading zero omitted, Abs format (unit mm)*
G04 Created by KiCad (PCBNEW (6.0.5-0)) date 2022-07-19 01:27:06*
%MOMM*%
%LPD*%
G01*
G04 APERTURE LIST*
G04 Aperture macros list*
%AMRoundRect*
0 Rectangle with rounded corners*
0 $1 Rounding radius*
0 $2 $3 $4 $5 $6 $7 $8 $9 X,Y pos of 4 corners*
0 Add a 4 corners polygon primitive as box body*
4,1,4,$2,$3,$4,$5,$6,$7,$8,$9,$2,$3,0*
0 Add four circle primitives for the rounded corners*
1,1,$1+$1,$2,$3*
1,1,$1+$1,$4,$5*
1,1,$1+$1,$6,$7*
1,1,$1+$1,$8,$9*
0 Add four rect primitives between the rounded corners*
20,1,$1+$1,$2,$3,$4,$5,0*
20,1,$1+$1,$4,$5,$6,$7,0*
20,1,$1+$1,$6,$7,$8,$9,0*
20,1,$1+$1,$8,$9,$2,$3,0*%
G04 Aperture macros list end*
%ADD10C,2.000000*%
%ADD11C,1.524000*%
%ADD12R,1.150000X1.400000*%
%ADD13R,1.700000X1.700000*%
%ADD14C,1.700000*%
%ADD15C,3.200000*%
%ADD16R,1.400000X1.150000*%
%ADD17O,1.700000X1.700000*%
%ADD18R,1.600000X1.600000*%
%ADD19O,1.600000X1.600000*%
%ADD20RoundRect,0.500000X-1.750000X-0.500000X1.750000X-0.500000X1.750000X0.500000X-1.750000X0.500000X0*%
%ADD21RoundRect,0.500000X0.500000X-1.500000X0.500000X1.500000X-0.500000X1.500000X-0.500000X-1.500000X0*%
%ADD22R,1.000000X1.800000*%
%ADD23R,1.400000X1.600000*%
%ADD24C,1.600000*%
%ADD25R,3.000000X3.000000*%
%ADD26C,3.000000*%
%ADD27R,1.200000X2.200000*%
%ADD28R,5.800000X6.400000*%
G04 APERTURE END LIST*
D10*
%TO.C,TP25*%
X97039527Y31346340D03*
%TD*%
%TO.C,TP24*%
X8060000Y51050000D03*
%TD*%
%TO.C,TP23*%
X43637154Y45628795D03*
%TD*%
%TO.C,TP22*%
X66113470Y48898535D03*
%TD*%
D11*
%TO.C,D3*%
X70860000Y19300000D03*
X70860000Y21840000D03*
X70860000Y24380000D03*
X70860000Y26920000D03*
X70860000Y29460000D03*
X70860000Y32000000D03*
X70860000Y34540000D03*
X70860000Y37080000D03*
X46860000Y37080000D03*
X46860000Y34540000D03*
X46860000Y32000000D03*
X46860000Y29460000D03*
X46860000Y26920000D03*
X46860000Y24380000D03*
X46860000Y21840000D03*
X46860000Y19300000D03*
%TD*%
D12*
%TO.C,R4*%
X35282042Y72292455D03*
X33582042Y72292455D03*
%TD*%
D13*
%TO.C,U6*%
X20887000Y82927000D03*
D14*
X23427000Y82927000D03*
X25967000Y82927000D03*
X28507000Y82927000D03*
X31047000Y82927000D03*
X31047000Y98167000D03*
X28507000Y98167000D03*
X25967000Y98167000D03*
X23427000Y98167000D03*
X20887000Y98167000D03*
%TD*%
D15*
%TO.C,H4*%
X4500000Y59000000D03*
%TD*%
D13*
%TO.C,U8*%
X37397000Y95627000D03*
D14*
X39937000Y95627000D03*
X42477000Y95627000D03*
X45017000Y95627000D03*
X47557000Y95627000D03*
X47557000Y110867000D03*
X45017000Y110867000D03*
X42477000Y110867000D03*
X39937000Y110867000D03*
X37397000Y110867000D03*
%TD*%
D12*
%TO.C,R2*%
X35362450Y74543881D03*
X33662450Y74543881D03*
%TD*%
D10*
%TO.C,TP2*%
X100770000Y65020000D03*
%TD*%
D15*
%TO.C,H7*%
X66830000Y68830000D03*
%TD*%
D16*
%TO.C,R14*%
X102040000Y90000000D03*
X102040000Y88300000D03*
%TD*%
D15*
%TO.C,H5*%
X39830000Y68830000D03*
%TD*%
%TO.C,H6*%
X51230000Y53590000D03*
%TD*%
%TO.C,H2*%
X113500000Y59000000D03*
%TD*%
%TO.C,H3*%
X59000000Y4500000D03*
%TD*%
D16*
%TO.C,C1*%
X96960000Y44280000D03*
X96960000Y42580000D03*
%TD*%
D13*
%TO.C,J3*%
X75370000Y66305000D03*
D17*
X75370000Y68845000D03*
X75370000Y71385000D03*
%TD*%
D18*
%TO.C,U1*%
X102030000Y26930000D03*
D19*
X102030000Y29470000D03*
X102030000Y32010000D03*
X102030000Y34550000D03*
X102030000Y37090000D03*
X102030000Y39630000D03*
X102030000Y42170000D03*
X102030000Y44710000D03*
X102030000Y47250000D03*
X102030000Y49790000D03*
X102030000Y52330000D03*
X102030000Y54870000D03*
X102030000Y57410000D03*
X102030000Y59950000D03*
X94410000Y59950000D03*
X94410000Y57410000D03*
X94410000Y54870000D03*
X94410000Y52330000D03*
X94410000Y49790000D03*
X94410000Y47250000D03*
X94410000Y44710000D03*
X94410000Y42170000D03*
X94410000Y39630000D03*
X94410000Y37090000D03*
X94410000Y34550000D03*
X94410000Y32010000D03*
X94410000Y29470000D03*
X94410000Y26930000D03*
%TD*%
D12*
%TO.C,R22*%
X99080000Y73910000D03*
X97380000Y73910000D03*
%TD*%
D15*
%TO.C,H1*%
X59000000Y113500000D03*
%TD*%
D13*
%TO.C,U9*%
X85657000Y84197000D03*
D14*
X88197000Y84197000D03*
X90737000Y84197000D03*
X93277000Y84197000D03*
X95817000Y84197000D03*
X95817000Y99437000D03*
X93277000Y99437000D03*
X90737000Y99437000D03*
X88197000Y99437000D03*
X85657000Y99437000D03*
%TD*%
D10*
%TO.C,TP1*%
X98230000Y54860000D03*
%TD*%
D13*
%TO.C,U7*%
X69147000Y95627000D03*
D14*
X71687000Y95627000D03*
X74227000Y95627000D03*
X76767000Y95627000D03*
X79307000Y95627000D03*
X79307000Y110867000D03*
X76767000Y110867000D03*
X74227000Y110867000D03*
X71687000Y110867000D03*
X69147000Y110867000D03*
%TD*%
D15*
%TO.C,H8*%
X78230000Y53590000D03*
%TD*%
D13*
%TO.C,J4*%
X43620000Y56115000D03*
D17*
X43620000Y53575000D03*
X43620000Y51035000D03*
%TD*%
D12*
%TO.C,R23*%
X99080000Y71370000D03*
X97380000Y71370000D03*
%TD*%
D18*
%TO.C,U5*%
X38530000Y48515000D03*
D19*
X38530000Y45975000D03*
X38530000Y43435000D03*
X38530000Y40895000D03*
X38530000Y38355000D03*
X38530000Y35815000D03*
X38530000Y33275000D03*
X38530000Y30735000D03*
X38530000Y28195000D03*
X38530000Y25655000D03*
X38530000Y23115000D03*
X38530000Y20575000D03*
X30910000Y20575000D03*
X30910000Y23115000D03*
X30910000Y25655000D03*
X30910000Y28195000D03*
X30910000Y30735000D03*
X30910000Y33275000D03*
X30910000Y35815000D03*
X30910000Y38355000D03*
X30910000Y40895000D03*
X30910000Y43435000D03*
X30910000Y45975000D03*
X30910000Y48515000D03*
%TD*%
D20*
%TO.C,J1*%
X62670000Y46280000D03*
D21*
X57370000Y48580000D03*
X59870000Y52280000D03*
%TD*%
D22*
%TO.C,Y2*%
X81700000Y44700000D03*
X79200000Y44700000D03*
%TD*%
D12*
%TO.C,R7*%
X59280000Y16760000D03*
X60980000Y16760000D03*
%TD*%
D23*
%TO.C,SW1*%
X78200000Y25840000D03*
X78200000Y17840000D03*
X82700000Y25840000D03*
X82700000Y17840000D03*
%TD*%
D16*
%TO.C,C5*%
X72830000Y46820000D03*
X72830000Y45120000D03*
%TD*%
D12*
%TO.C,C9*%
X80020000Y32000000D03*
X81720000Y32000000D03*
%TD*%
D13*
%TO.C,J5*%
X69020000Y7870000D03*
D17*
X69020000Y5330000D03*
X71560000Y7870000D03*
X71560000Y5330000D03*
X74100000Y7870000D03*
X74100000Y5330000D03*
%TD*%
D12*
%TO.C,R16*%
X64790000Y77720000D03*
X63090000Y77720000D03*
%TD*%
D24*
%TO.C,R6*%
X14410000Y37940000D03*
X14410000Y34540000D03*
%TD*%
D16*
%TO.C,C4*%
X70290000Y46820000D03*
X70290000Y45120000D03*
%TD*%
D18*
%TO.C,U4*%
X44885000Y89140000D03*
D19*
X47425000Y89140000D03*
X49965000Y89140000D03*
X52505000Y89140000D03*
X55045000Y89140000D03*
X57585000Y89140000D03*
X60125000Y89140000D03*
X62665000Y89140000D03*
X65205000Y89140000D03*
X67745000Y89140000D03*
X70285000Y89140000D03*
X72825000Y89140000D03*
X72825000Y81520000D03*
X70285000Y81520000D03*
X67745000Y81520000D03*
X65205000Y81520000D03*
X62665000Y81520000D03*
X60125000Y81520000D03*
X57585000Y81520000D03*
X55045000Y81520000D03*
X52505000Y81520000D03*
X49965000Y81520000D03*
X47425000Y81520000D03*
X44885000Y81520000D03*
%TD*%
D16*
%TO.C,C11*%
X52510000Y60871742D03*
X52510000Y62571742D03*
%TD*%
D18*
%TO.C,U3*%
X79180000Y42160000D03*
D19*
X81720000Y42160000D03*
X84260000Y42160000D03*
X86800000Y42160000D03*
X86800000Y34540000D03*
X84260000Y34540000D03*
X81720000Y34540000D03*
X79180000Y34540000D03*
%TD*%
D12*
%TO.C,C17*%
X28380000Y35810000D03*
X26680000Y35810000D03*
%TD*%
D25*
%TO.C,BT1*%
X34913686Y59939983D03*
D26*
X14423686Y59939983D03*
%TD*%
D16*
%TO.C,C16*%
X56320000Y78570000D03*
X56320000Y76870000D03*
%TD*%
D12*
%TO.C,R8*%
X60980000Y14220000D03*
X59280000Y14220000D03*
%TD*%
D16*
%TO.C,C24*%
X47430000Y61210000D03*
X47430000Y62910000D03*
%TD*%
%TO.C,C23*%
X58860000Y78570000D03*
X58860000Y76870000D03*
%TD*%
D12*
%TO.C,C22*%
X26923836Y38294517D03*
X25223836Y38294517D03*
%TD*%
D16*
%TO.C,C10*%
X49970000Y61210000D03*
X49970000Y62910000D03*
%TD*%
%TO.C,C8*%
X75370000Y46820000D03*
X75370000Y45120000D03*
%TD*%
D13*
%TO.C,J2*%
X37270000Y9140000D03*
D17*
X39810000Y9140000D03*
X42350000Y9140000D03*
X44890000Y9140000D03*
X47430000Y9140000D03*
X49970000Y9140000D03*
%TD*%
D27*
%TO.C,U2*%
X59870000Y59550000D03*
D28*
X57590000Y65850000D03*
D27*
X55310000Y59550000D03*
%TD*%
D16*
%TO.C,R3*%
X44890000Y61630000D03*
X44890000Y63330000D03*
%TD*%
D12*
%TO.C,C13*%
X44890000Y5330000D03*
X43190000Y5330000D03*
%TD*%
M02*
