%TF.GenerationSoftware,KiCad,Pcbnew,(6.0.5-0)*%
%TF.CreationDate,2022-07-19T01:27:06-07:00*%
%TF.ProjectId,clock_design,636c6f63-6b5f-4646-9573-69676e2e6b69,rev?*%
%TF.SameCoordinates,PX56c8cc0PY97a25c0*%
%TF.FileFunction,Soldermask,Top*%
%TF.FilePolarity,Negative*%
%FSLAX46Y46*%
G04 Gerber Fmt 4.6, Leading zero omitted, Abs format (unit mm)*
G04 Created by KiCad (PCBNEW (6.0.5-0)) date 2022-07-19 01:27:06*
%MOMM*%
%LPD*%
G01*
G04 APERTURE LIST*
G04 Aperture macros list*
%AMRoundRect*
0 Rectangle with rounded corners*
0 $1 Rounding radius*
0 $2 $3 $4 $5 $6 $7 $8 $9 X,Y pos of 4 corners*
0 Add a 4 corners polygon primitive as box body*
4,1,4,$2,$3,$4,$5,$6,$7,$8,$9,$2,$3,0*
0 Add four circle primitives for the rounded corners*
1,1,$1+$1,$2,$3*
1,1,$1+$1,$4,$5*
1,1,$1+$1,$6,$7*
1,1,$1+$1,$8,$9*
0 Add four rect primitives between the rounded corners*
20,1,$1+$1,$2,$3,$4,$5,0*
20,1,$1+$1,$4,$5,$6,$7,0*
20,1,$1+$1,$6,$7,$8,$9,0*
20,1,$1+$1,$8,$9,$2,$3,0*%
G04 Aperture macros list end*
%ADD10C,2.000000*%
%ADD11C,1.524000*%
%ADD12R,1.400000X1.600000*%
%ADD13R,1.700000X1.700000*%
%ADD14C,1.700000*%
%ADD15C,3.200000*%
%ADD16R,1.150000X1.400000*%
%ADD17R,1.400000X1.150000*%
%ADD18R,2.000000X4.500000*%
%ADD19RoundRect,0.243750X0.456250X-0.243750X0.456250X0.243750X-0.456250X0.243750X-0.456250X-0.243750X0*%
%ADD20RoundRect,0.243750X0.243750X0.456250X-0.243750X0.456250X-0.243750X-0.456250X0.243750X-0.456250X0*%
%ADD21O,1.700000X1.700000*%
%ADD22R,1.600000X1.600000*%
%ADD23O,1.600000X1.600000*%
%ADD24RoundRect,0.500000X-1.750000X-0.500000X1.750000X-0.500000X1.750000X0.500000X-1.750000X0.500000X0*%
%ADD25RoundRect,0.500000X0.500000X-1.500000X0.500000X1.500000X-0.500000X1.500000X-0.500000X-1.500000X0*%
%ADD26C,1.600000*%
%ADD27R,3.000000X3.000000*%
%ADD28C,3.000000*%
G04 APERTURE END LIST*
D10*
%TO.C,TP25*%
X97039527Y31346340D03*
%TD*%
%TO.C,TP24*%
X8060000Y51050000D03*
%TD*%
%TO.C,TP23*%
X43637154Y45628795D03*
%TD*%
%TO.C,TP22*%
X66113470Y48898535D03*
%TD*%
D11*
%TO.C,D3*%
X70860000Y19300000D03*
X70860000Y21840000D03*
X70860000Y24380000D03*
X70860000Y26920000D03*
X70860000Y29460000D03*
X70860000Y32000000D03*
X70860000Y34540000D03*
X70860000Y37080000D03*
X46860000Y37080000D03*
X46860000Y34540000D03*
X46860000Y32000000D03*
X46860000Y29460000D03*
X46860000Y26920000D03*
X46860000Y24380000D03*
X46860000Y21840000D03*
X46860000Y19300000D03*
%TD*%
D12*
%TO.C,SW2*%
X11580000Y80450000D03*
X11580000Y72450000D03*
X7080000Y80450000D03*
X7080000Y72450000D03*
%TD*%
D13*
%TO.C,U6*%
X20887000Y82927000D03*
D14*
X23427000Y82927000D03*
X25967000Y82927000D03*
X28507000Y82927000D03*
X31047000Y82927000D03*
X31047000Y98167000D03*
X28507000Y98167000D03*
X25967000Y98167000D03*
X23427000Y98167000D03*
X20887000Y98167000D03*
%TD*%
D15*
%TO.C,H4*%
X4500000Y59000000D03*
%TD*%
D13*
%TO.C,U8*%
X37397000Y95627000D03*
D14*
X39937000Y95627000D03*
X42477000Y95627000D03*
X45017000Y95627000D03*
X47557000Y95627000D03*
X47557000Y110867000D03*
X45017000Y110867000D03*
X42477000Y110867000D03*
X39937000Y110867000D03*
X37397000Y110867000D03*
%TD*%
D16*
%TO.C,C3*%
X105449246Y35810000D03*
X107149246Y35810000D03*
%TD*%
%TO.C,R21*%
X24990000Y20570000D03*
X26690000Y20570000D03*
%TD*%
D10*
%TO.C,TP2*%
X100770000Y65020000D03*
%TD*%
D17*
%TO.C,C12*%
X10723598Y36832927D03*
X10723598Y38532927D03*
%TD*%
D15*
%TO.C,H7*%
X66830000Y68830000D03*
%TD*%
D18*
%TO.C,Y1*%
X107120000Y54030000D03*
X107120000Y45530000D03*
%TD*%
D16*
%TO.C,C7*%
X107775970Y58186564D03*
X106075970Y58186564D03*
%TD*%
D19*
%TO.C,D1*%
X29650000Y70432500D03*
X29650000Y72307500D03*
%TD*%
D17*
%TO.C,R10*%
X84260000Y39200000D03*
X84260000Y37500000D03*
%TD*%
D16*
%TO.C,C6*%
X107188703Y41547341D03*
X105488703Y41547341D03*
%TD*%
%TO.C,R18*%
X19910000Y25650000D03*
X21610000Y25650000D03*
%TD*%
D15*
%TO.C,H5*%
X39830000Y68830000D03*
%TD*%
D16*
%TO.C,R5*%
X18945914Y30197969D03*
X17245914Y30197969D03*
%TD*%
D15*
%TO.C,H6*%
X51230000Y53590000D03*
%TD*%
D16*
%TO.C,C2*%
X105336468Y38350000D03*
X107036468Y38350000D03*
%TD*%
D12*
%TO.C,SW5*%
X79470000Y20380000D03*
X79470000Y28380000D03*
X83970000Y20380000D03*
X83970000Y28380000D03*
%TD*%
D16*
%TO.C,R13*%
X13560000Y43430000D03*
X15260000Y43430000D03*
%TD*%
D15*
%TO.C,H2*%
X113500000Y59000000D03*
%TD*%
D17*
%TO.C,R12*%
X15680000Y82380000D03*
X15680000Y80680000D03*
%TD*%
D20*
%TO.C,D4*%
X113137500Y68830000D03*
X111262500Y68830000D03*
%TD*%
D15*
%TO.C,H3*%
X59000000Y4500000D03*
%TD*%
D16*
%TO.C,R20*%
X99080000Y77594340D03*
X97380000Y77594340D03*
%TD*%
%TO.C,R15*%
X88920000Y28190000D03*
X87220000Y28190000D03*
%TD*%
D13*
%TO.C,J3*%
X75370000Y66305000D03*
D21*
X75370000Y68845000D03*
X75370000Y71385000D03*
%TD*%
D22*
%TO.C,U1*%
X102030000Y26930000D03*
D23*
X102030000Y29470000D03*
X102030000Y32010000D03*
X102030000Y34550000D03*
X102030000Y37090000D03*
X102030000Y39630000D03*
X102030000Y42170000D03*
X102030000Y44710000D03*
X102030000Y47250000D03*
X102030000Y49790000D03*
X102030000Y52330000D03*
X102030000Y54870000D03*
X102030000Y57410000D03*
X102030000Y59950000D03*
X94410000Y59950000D03*
X94410000Y57410000D03*
X94410000Y54870000D03*
X94410000Y52330000D03*
X94410000Y49790000D03*
X94410000Y47250000D03*
X94410000Y44710000D03*
X94410000Y42170000D03*
X94410000Y39630000D03*
X94410000Y37090000D03*
X94410000Y34550000D03*
X94410000Y32010000D03*
X94410000Y29470000D03*
X94410000Y26930000D03*
%TD*%
D16*
%TO.C,R17*%
X105000000Y68830000D03*
X106700000Y68830000D03*
%TD*%
D15*
%TO.C,H1*%
X59000000Y113500000D03*
%TD*%
D13*
%TO.C,U9*%
X85657000Y84197000D03*
D14*
X88197000Y84197000D03*
X90737000Y84197000D03*
X93277000Y84197000D03*
X95817000Y84197000D03*
X95817000Y99437000D03*
X93277000Y99437000D03*
X90737000Y99437000D03*
X88197000Y99437000D03*
X85657000Y99437000D03*
%TD*%
D16*
%TO.C,C19*%
X78792510Y68814778D03*
X80492510Y68814778D03*
%TD*%
D12*
%TO.C,SW3*%
X21050000Y33080000D03*
X21050000Y41080000D03*
X25550000Y33080000D03*
X25550000Y41080000D03*
%TD*%
D16*
%TO.C,C26*%
X40660000Y52320000D03*
X38960000Y52320000D03*
%TD*%
%TO.C,R11*%
X50390000Y4060000D03*
X52090000Y4060000D03*
%TD*%
D10*
%TO.C,TP1*%
X98230000Y54860000D03*
%TD*%
D19*
%TO.C,D2*%
X32190000Y70432500D03*
X32190000Y72307500D03*
%TD*%
D16*
%TO.C,C25*%
X78792510Y66274778D03*
X80492510Y66274778D03*
%TD*%
D13*
%TO.C,U7*%
X69147000Y95627000D03*
D14*
X71687000Y95627000D03*
X74227000Y95627000D03*
X76767000Y95627000D03*
X79307000Y95627000D03*
X79307000Y110867000D03*
X76767000Y110867000D03*
X74227000Y110867000D03*
X71687000Y110867000D03*
X69147000Y110867000D03*
%TD*%
D12*
%TO.C,SW4*%
X108100000Y84260000D03*
X108100000Y76260000D03*
X103600000Y84260000D03*
X103600000Y76260000D03*
%TD*%
D15*
%TO.C,H8*%
X78230000Y53590000D03*
%TD*%
D13*
%TO.C,J4*%
X43620000Y56115000D03*
D21*
X43620000Y53575000D03*
X43620000Y51035000D03*
%TD*%
D16*
%TO.C,C20*%
X40660000Y54860000D03*
X38960000Y54860000D03*
%TD*%
D17*
%TO.C,R9*%
X86800000Y39200000D03*
X86800000Y37500000D03*
%TD*%
D16*
%TO.C,R1*%
X81300000Y38350000D03*
X79600000Y38350000D03*
%TD*%
D22*
%TO.C,U5*%
X38530000Y48515000D03*
D23*
X38530000Y45975000D03*
X38530000Y43435000D03*
X38530000Y40895000D03*
X38530000Y38355000D03*
X38530000Y35815000D03*
X38530000Y33275000D03*
X38530000Y30735000D03*
X38530000Y28195000D03*
X38530000Y25655000D03*
X38530000Y23115000D03*
X38530000Y20575000D03*
X30910000Y20575000D03*
X30910000Y23115000D03*
X30910000Y25655000D03*
X30910000Y28195000D03*
X30910000Y30735000D03*
X30910000Y33275000D03*
X30910000Y35815000D03*
X30910000Y38355000D03*
X30910000Y40895000D03*
X30910000Y43435000D03*
X30910000Y45975000D03*
X30910000Y48515000D03*
%TD*%
D24*
%TO.C,J1*%
X62670000Y46280000D03*
D25*
X57370000Y48580000D03*
X59870000Y52280000D03*
%TD*%
D13*
%TO.C,J5*%
X69020000Y7870000D03*
D21*
X69020000Y5330000D03*
X71560000Y7870000D03*
X71560000Y5330000D03*
X74100000Y7870000D03*
X74100000Y5330000D03*
%TD*%
D26*
%TO.C,R6*%
X14410000Y37940000D03*
X14410000Y34540000D03*
%TD*%
D22*
%TO.C,U4*%
X44885000Y89140000D03*
D23*
X47425000Y89140000D03*
X49965000Y89140000D03*
X52505000Y89140000D03*
X55045000Y89140000D03*
X57585000Y89140000D03*
X60125000Y89140000D03*
X62665000Y89140000D03*
X65205000Y89140000D03*
X67745000Y89140000D03*
X70285000Y89140000D03*
X72825000Y89140000D03*
X72825000Y81520000D03*
X70285000Y81520000D03*
X67745000Y81520000D03*
X65205000Y81520000D03*
X62665000Y81520000D03*
X60125000Y81520000D03*
X57585000Y81520000D03*
X55045000Y81520000D03*
X52505000Y81520000D03*
X49965000Y81520000D03*
X47425000Y81520000D03*
X44885000Y81520000D03*
%TD*%
D22*
%TO.C,U3*%
X79180000Y42160000D03*
D23*
X81720000Y42160000D03*
X84260000Y42160000D03*
X86800000Y42160000D03*
X86800000Y34540000D03*
X84260000Y34540000D03*
X81720000Y34540000D03*
X79180000Y34540000D03*
%TD*%
D27*
%TO.C,BT1*%
X34913686Y59939983D03*
D28*
X14423686Y59939983D03*
%TD*%
D13*
%TO.C,J2*%
X37270000Y9140000D03*
D21*
X39810000Y9140000D03*
X42350000Y9140000D03*
X44890000Y9140000D03*
X47430000Y9140000D03*
X49970000Y9140000D03*
%TD*%
M02*
