%TF.GenerationSoftware,KiCad,Pcbnew,(6.0.5-0)*%
%TF.CreationDate,2022-07-19T01:27:06-07:00*%
%TF.ProjectId,clock_design,636c6f63-6b5f-4646-9573-69676e2e6b69,rev?*%
%TF.SameCoordinates,PX56c8cc0PY97a25c0*%
%TF.FileFunction,Paste,Top*%
%TF.FilePolarity,Positive*%
%FSLAX46Y46*%
G04 Gerber Fmt 4.6, Leading zero omitted, Abs format (unit mm)*
G04 Created by KiCad (PCBNEW (6.0.5-0)) date 2022-07-19 01:27:06*
%MOMM*%
%LPD*%
G01*
G04 APERTURE LIST*
G04 Aperture macros list*
%AMRoundRect*
0 Rectangle with rounded corners*
0 $1 Rounding radius*
0 $2 $3 $4 $5 $6 $7 $8 $9 X,Y pos of 4 corners*
0 Add a 4 corners polygon primitive as box body*
4,1,4,$2,$3,$4,$5,$6,$7,$8,$9,$2,$3,0*
0 Add four circle primitives for the rounded corners*
1,1,$1+$1,$2,$3*
1,1,$1+$1,$4,$5*
1,1,$1+$1,$6,$7*
1,1,$1+$1,$8,$9*
0 Add four rect primitives between the rounded corners*
20,1,$1+$1,$2,$3,$4,$5,0*
20,1,$1+$1,$4,$5,$6,$7,0*
20,1,$1+$1,$6,$7,$8,$9,0*
20,1,$1+$1,$8,$9,$2,$3,0*%
G04 Aperture macros list end*
%ADD10R,1.400000X1.600000*%
%ADD11R,1.150000X1.400000*%
%ADD12R,1.400000X1.150000*%
%ADD13R,2.000000X4.500000*%
%ADD14RoundRect,0.243750X0.456250X-0.243750X0.456250X0.243750X-0.456250X0.243750X-0.456250X-0.243750X0*%
%ADD15RoundRect,0.243750X0.243750X0.456250X-0.243750X0.456250X-0.243750X-0.456250X0.243750X-0.456250X0*%
G04 APERTURE END LIST*
D10*
%TO.C,SW2*%
X11580000Y80450000D03*
X11580000Y72450000D03*
X7080000Y80450000D03*
X7080000Y72450000D03*
%TD*%
D11*
%TO.C,C3*%
X105449246Y35810000D03*
X107149246Y35810000D03*
%TD*%
%TO.C,R21*%
X24990000Y20570000D03*
X26690000Y20570000D03*
%TD*%
D12*
%TO.C,C12*%
X10723598Y36832927D03*
X10723598Y38532927D03*
%TD*%
D13*
%TO.C,Y1*%
X107120000Y54030000D03*
X107120000Y45530000D03*
%TD*%
D11*
%TO.C,C7*%
X107775970Y58186564D03*
X106075970Y58186564D03*
%TD*%
D14*
%TO.C,D1*%
X29650000Y70432500D03*
X29650000Y72307500D03*
%TD*%
D12*
%TO.C,R10*%
X84260000Y39200000D03*
X84260000Y37500000D03*
%TD*%
D11*
%TO.C,C6*%
X107188703Y41547341D03*
X105488703Y41547341D03*
%TD*%
%TO.C,R18*%
X19910000Y25650000D03*
X21610000Y25650000D03*
%TD*%
%TO.C,R5*%
X18945914Y30197969D03*
X17245914Y30197969D03*
%TD*%
%TO.C,C2*%
X105336468Y38350000D03*
X107036468Y38350000D03*
%TD*%
D10*
%TO.C,SW5*%
X79470000Y20380000D03*
X79470000Y28380000D03*
X83970000Y20380000D03*
X83970000Y28380000D03*
%TD*%
D11*
%TO.C,R13*%
X13560000Y43430000D03*
X15260000Y43430000D03*
%TD*%
D12*
%TO.C,R12*%
X15680000Y82380000D03*
X15680000Y80680000D03*
%TD*%
D15*
%TO.C,D4*%
X113137500Y68830000D03*
X111262500Y68830000D03*
%TD*%
D11*
%TO.C,R20*%
X99080000Y77594340D03*
X97380000Y77594340D03*
%TD*%
%TO.C,R15*%
X88920000Y28190000D03*
X87220000Y28190000D03*
%TD*%
%TO.C,R17*%
X105000000Y68830000D03*
X106700000Y68830000D03*
%TD*%
%TO.C,C19*%
X78792510Y68814778D03*
X80492510Y68814778D03*
%TD*%
D10*
%TO.C,SW3*%
X21050000Y33080000D03*
X21050000Y41080000D03*
X25550000Y33080000D03*
X25550000Y41080000D03*
%TD*%
D11*
%TO.C,C26*%
X40660000Y52320000D03*
X38960000Y52320000D03*
%TD*%
%TO.C,R11*%
X50390000Y4060000D03*
X52090000Y4060000D03*
%TD*%
D14*
%TO.C,D2*%
X32190000Y70432500D03*
X32190000Y72307500D03*
%TD*%
D11*
%TO.C,C25*%
X78792510Y66274778D03*
X80492510Y66274778D03*
%TD*%
D10*
%TO.C,SW4*%
X108100000Y84260000D03*
X108100000Y76260000D03*
X103600000Y84260000D03*
X103600000Y76260000D03*
%TD*%
D11*
%TO.C,C20*%
X40660000Y54860000D03*
X38960000Y54860000D03*
%TD*%
D12*
%TO.C,R9*%
X86800000Y39200000D03*
X86800000Y37500000D03*
%TD*%
D11*
%TO.C,R1*%
X81300000Y38350000D03*
X79600000Y38350000D03*
%TD*%
M02*
